<?xml version='1.0' encoding='utf-8'?>
<svg xmlns="http://www.w3.org/2000/svg" version="1.1" id="Capa_1" x="0px" y="0px" width="2013.377px" height="2840.113px" viewBox="0 0 2013.377 2840.113" enable-background="new 0 0 2013.377 2840.113">
    <g>
        <path fill="#F4D9BA" d="M165.943,2388.622c0,0-23.47-393.094,36.245-600.063c66.912-231.913,253.199-586.19,193.309-837.672 c-52.522-220.543-36.245-374.536-8.055-487.3s60.409-241.636,140.954-193.309s173.173,124.845,205.391,132.9 c0,0,169.145-8.055,269.827,4.027c0,0,189.282-149.009,257.745-112.764s76.518,193.309,80.545,273.854 c4.027,80.545,19.601,262.862-10.051,387.422c-23.843,100.158-41.657,237.258,3.054,353.537 c48.982,127.387,151.979,422.922,115.734,966.603c0,0,60.409-197.336,56.382-289.963c-4.027-92.627-12.082-241.636,44.3-362.454 c56.382-120.818,260.104-467.163,386.618-374.536c126.514,92.627,0,193.309-36.245,241.636 c-36.245,48.327-173.173,370.509-153.036,531.599s8.055,656.445-382.591,745.045S194.134,2847.731,165.943,2388.622z" />
        <path fill="#F9EEE5" d="M436.25,510.914c0,0,67.802-86.636,209.056-88.519c0,0-37.668-43.318-84.753-65.919 c-47.085-22.601-64.035-30.134-77.219,0C470.151,386.61,438.133,478.896,436.25,510.914z" />
        <path fill="#F9EEE5" d="M1074.133,446.879c0,0,119.24,3.767,202.109,75.336c0,0,0-158.205-48.112-173.435 C1206.509,341.934,1150.055,369.659,1074.133,446.879z" />
        <g>
            <path fill="#F9EEE5" d="M828.807,868.063c0,0-121.349-72.757-64.847-84.057c56.502-11.3,130.755-4.047,155.24,1.603 c24.484,5.65-2.272,35.76-28.639,54.593S843.127,878.686,828.807,868.063z" />
            <path fill="#F9EEE5" d="M735.73,935.069c4.071,3.65,8.435,6.889,12.884,9.882c4.459,2.978,9.084,5.642,13.891,7.724 c4.754,2.167,9.691,3.79,14.65,4.592c2.476,0.404,4.946,0.689,7.396,0.674c2.45,0.038,4.874-0.204,7.236-0.648 c2.374-0.416,4.649-1.191,6.895-1.996l3.295-1.439c1.068-0.554,2.101-1.196,3.153-1.778c1.076-0.533,2.017-1.358,3.02-2.039 c0.996-0.701,1.993-1.395,2.893-2.259l2.779-2.441l2.577-2.725c1.818-1.693,3.288-3.827,4.956-5.708 c1.536-2.031,2.996-4.146,4.469-6.238l4.032-6.632c1.222-2.306,2.434-4.614,3.722-6.884l6.212-10.953l4.654,11.424 c0.824,2.024,1.909,4.354,2.999,6.494c1.104,2.177,2.274,4.327,3.525,6.418c2.482,4.198,5.283,8.163,8.25,11.894 c3,3.7,6.332,7.06,10.017,9.714c1.846,1.323,3.785,2.402,5.75,3.411l3.036,1.223l3.141,0.81c1.068,0.109,2.139,0.306,3.222,0.385 l3.278-0.05l3.304-0.476l3.306-0.872c2.162-0.794,4.399-1.567,6.469-2.807c2.167-1.04,4.125-2.515,6.192-3.857 c2.02-1.413,3.936-3.028,5.888-4.605c1.818-1.734,3.736-3.392,5.546-5.185c3.605-3.603,7.04-7.424,10.48-11.313l-3.752,6.824 c-1.318,2.243-2.826,4.369-4.245,6.577c-1.455,2.182-3.17,4.183-4.782,6.281c-1.769,1.965-3.522,3.981-5.458,5.848 c-1.989,1.822-3.998,3.641-6.307,5.17c-2.177,1.68-4.7,2.968-7.226,4.242l-4.005,1.599l-4.267,1.023 c-1.453,0.219-2.938,0.322-4.418,0.469c-1.483,0.035-2.977-0.075-4.474-0.128c-1.476-0.183-2.942-0.471-4.42-0.724l-4.263-1.281 c-1.342-0.575-2.731-1.104-4.034-1.764c-1.253-0.718-2.556-1.392-3.764-2.171c-4.851-3.112-9.02-6.933-12.724-11.024 c-3.737-4.079-6.86-8.57-9.722-13.161c-1.431-2.3-2.765-4.649-4.03-7.039c-1.281-2.425-2.427-4.737-3.592-7.459l10.865,0.471 l-4.065,7.443l-4.568,7.22c-1.687,2.325-3.365,4.657-5.148,6.924c-1.96,2.16-3.65,4.501-5.851,6.489l-3.201,3.027l-3.495,2.765 c-1.129,0.954-2.399,1.762-3.67,2.562c-1.283,0.783-2.474,1.68-3.865,2.311c-1.357,0.672-2.687,1.385-4.067,2.003l-4.271,1.599 c-2.928,0.852-5.908,1.506-8.935,1.785c-3.013,0.294-6.049,0.315-9.021,0.008c-2.971-0.279-5.908-0.793-8.715-1.643 c-5.636-1.644-10.863-4.134-15.686-7.09C750.153,951.839,741.994,944.082,735.73,935.069z" />
            <g>
                <rect x="832.906" y="871.054" fill="#F9EEE5" width="12.001" height="48.802" />
            </g>
            <path fill="#FFFFFF" d="M864.492,785.974c-15.444-1.909,68.283,2.976,56.378,18.282c-11.905,15.306-20.408,19.983-13.18,9.779 S922.431,793.134,864.492,785.974z" />
        </g>
        <g>
            <path d="M473.502,747.125c0,0,2.935,0.98,8.07,2.694c5.103,1.799,12.455,4.209,21.166,7.387 c8.705,3.193,18.929,6.745,29.761,10.864c10.835,4.112,22.393,8.497,33.95,12.883c11.489,4.563,22.977,9.126,33.748,13.404 c10.777,4.261,20.714,8.55,29.294,12.068c8.574,3.532,15.624,6.72,20.603,8.837c4.946,2.202,7.773,3.46,7.773,3.46 s-2.935-0.979-8.071-2.692c-5.103-1.799-12.457-4.204-21.167-7.384c-8.705-3.195-18.932-6.736-29.761-10.866 c-10.835-4.112-22.392-8.499-33.949-12.886c-11.488-4.564-22.976-9.128-33.746-13.407c-10.773-4.271-20.714-8.55-29.293-12.069 c-8.573-3.535-15.625-6.718-20.604-8.835C476.329,748.382,473.502,747.125,473.502,747.125z" />
            <path d="M473.502,991.517c0,0,2.827-1.258,7.774-3.459c4.979-2.117,12.031-5.3,20.604-8.835 c8.579-3.519,18.52-7.799,29.293-12.069c10.77-4.279,22.258-8.843,33.746-13.407c11.557-4.387,23.114-8.773,33.949-12.886 c10.828-4.13,21.056-7.671,29.761-10.866c8.71-3.181,16.064-5.586,21.167-7.384c5.136-1.713,8.071-2.692,8.071-2.692 s-2.826,1.258-7.773,3.46c-4.979,2.117-12.029,5.306-20.603,8.837c-8.579,3.518-18.517,7.807-29.294,12.068 c-10.771,4.278-22.259,8.841-33.748,13.404c-11.557,4.386-23.115,8.771-33.95,12.883c-10.832,4.12-21.056,7.671-29.761,10.864 c-8.712,3.177-16.063,5.588-21.166,7.387C476.437,990.538,473.502,991.517,473.502,991.517z" />
            <path d="M642.652,863.471c0,0-3.186,0.191-8.763,0.525c-5.577,0.244-13.543,0.763-23.105,1.081 c-9.563,0.3-20.717,0.838-32.672,1.076c-11.955,0.247-24.707,0.511-37.459,0.774c-12.755,0.073-25.509,0.146-37.467,0.215 c-11.957,0.087-23.122-0.167-32.689-0.215c-9.568-0.062-17.544-0.378-23.126-0.475c-5.583-0.189-8.773-0.297-8.773-0.297 s3.186-0.192,8.763-0.527c5.577-0.244,13.543-0.769,23.105-1.083c9.563-0.299,20.717-0.847,32.672-1.075 c11.955-0.246,24.707-0.508,37.459-0.771c12.755-0.072,25.509-0.144,37.467-0.212c11.957-0.076,23.122,0.168,32.689,0.216 c9.568,0.066,17.544,0.375,23.126,0.473C639.462,863.364,642.652,863.471,642.652,863.471z" />
        </g>
        <g>
            <path d="M1183.309,754.759c0,0-2.827,1.258-7.774,3.458c-4.979,2.117-12.031,5.3-20.604,8.835 c-8.579,3.519-18.52,7.799-29.293,12.069c-10.77,4.279-22.258,8.843-33.746,13.407c-11.557,4.387-23.114,8.773-33.949,12.886 c-10.828,4.13-21.056,7.671-29.76,10.866c-8.71,3.181-16.064,5.586-21.167,7.384c-5.136,1.713-8.071,2.692-8.071,2.692 s2.826-1.258,7.773-3.461c4.979-2.117,12.029-5.305,20.603-8.837c8.579-3.518,18.517-7.807,29.294-12.068 c10.771-4.278,22.259-8.841,33.748-13.404c11.557-4.386,23.115-8.771,33.95-12.883c10.832-4.12,21.056-7.671,29.761-10.864 c8.712-3.177,16.063-5.588,21.166-7.387C1180.374,755.739,1183.309,754.759,1183.309,754.759z" />
            <path d="M1183.309,999.152c0,0-2.935-0.98-8.07-2.694c-5.103-1.799-12.455-4.209-21.166-7.387 c-8.705-3.193-18.929-6.745-29.761-10.864c-10.835-4.112-22.393-8.497-33.95-12.883c-11.489-4.563-22.977-9.126-33.748-13.404 c-10.777-4.261-20.714-8.55-29.294-12.068c-8.574-3.532-15.623-6.72-20.603-8.837c-4.946-2.202-7.773-3.461-7.773-3.461 s2.935,0.979,8.071,2.693c5.103,1.799,12.457,4.204,21.167,7.384c8.705,3.195,18.933,6.736,29.76,10.866 c10.835,4.112,22.392,8.499,33.949,12.886c11.488,4.564,22.976,9.128,33.746,13.407c10.773,4.271,20.714,8.55,29.293,12.069 c8.573,3.535,15.625,6.718,20.604,8.835C1180.482,997.894,1183.309,999.152,1183.309,999.152z" />
            <path d="M1014.159,871.106c0,0,3.19-0.107,8.773-0.295c5.582-0.097,13.558-0.406,23.126-0.472 c9.567-0.049,20.732-0.293,32.689-0.216c11.958,0.068,24.712,0.14,37.467,0.212c12.752,0.262,25.504,0.525,37.459,0.771 c11.955,0.228,23.109,0.776,32.672,1.075c9.563,0.314,17.528,0.839,23.105,1.083c5.576,0.336,8.762,0.527,8.762,0.527 s-3.19,0.108-8.773,0.297c-5.582,0.097-13.558,0.413-23.126,0.475c-9.567,0.047-20.732,0.302-32.689,0.215 c-11.958-0.069-24.712-0.142-37.467-0.215c-12.752-0.263-25.504-0.527-37.459-0.774c-11.955-0.238-23.109-0.776-32.672-1.076 c-9.563-0.318-17.528-0.837-23.105-1.081C1017.345,871.297,1014.159,871.106,1014.159,871.106z" />
        </g>
        <g>
            <path fill="#F4BDAE" d="M832.289,460.043c136.323,14.936,196.376-71.54,196.376-71.54L949.602,51.331 c0,0-14.313-90.097-51.598-19.01c-34.694,66.148-207.18,343.536-207.18,343.536S695.966,445.107,832.289,460.043z" />
            <path fill="#E3EAB2" d="M820.873,164.027c0,0,21.361,14.58,30.041,10.575c8.679-4.006,27.373-30.496,27.373-10.575 s-7.344,31.271,2.67,39.95s17.587,19.361,4.12,20.029c-13.467,0.668-30.157-11.35-32.828,6.009s-8.679,32.046-12.685,18.693 s-6.676-28.04-15.355-24.034s-30.055,4.673-24.041-4.673c6.015-9.347,20.115-28.945,10.728-39.508L820.873,164.027z" />
            <path fill="#E3EAB2" d="M790.827,318.808c0,0-19.625,31.654-25.633,24.717s-22.435-28.055-21.768-14.035 c0.668,14.02,10.649,35.384-0.016,43.395s-26.021,28.04-7.328,25.37c18.693-2.671,24.809-15.896,29.429,3.735 c4.62,19.632,17.359,30.404,17.305,14.958c-0.054-15.446-4.018-35.384,17.352-36.052c21.37-0.668,14.668-15.882,1.612-22.257 C778.536,347.29,806.727,305.455,790.827,318.808z" />
            <path fill="#E3EAB2" d="M933.699,298.779L921.681,336.6c0,0-29.147,11.437-36.605,11.176c-7.458-0.261-6.062,5.08,7.26,9.086 s25.339,4.006,25.339,18.026c0,14.02,4.673,38.722,12.685,22.032c8.011-16.691,10.682-37.387,20.696-30.711 s28.708,23.442,26.705,4.043c-2.003-19.399-8.679-33.419-6.009-37.424c2.671-4.006,14.318-18.555,6.158-16.621 c-8.16,1.934-21.513,9.945-26.854,4.604S936.387,290.318,933.699,298.779z" />
            <path fill="#E3EAB2" d="M938.886,17.129c0,0-8.526,31.292-14.534,37.301s-38.055,13.352-26.037,20.696 c12.017,7.344,34.667,2.67,32.355,16.023s2.055,40.057,8.217,28.708s18.768-34.187,18.768-34.187S947.412,32.57,938.886,17.129z" />
        </g>
        <g>
            <g>
                <circle cx="794.451" cy="694.021" r="20.584" />
                <circle fill="#FFFFFF" cx="802.842" cy="684.886" r="4.139" />
            </g>
            <g>
                <circle cx="879.36" cy="694.021" r="20.584" />
                <circle fill="#FFFFFF" cx="889.991" cy="684.886" r="4.139" />
            </g>
        </g>
    </g>
    <g>
        <g>
            <path fill="#FCEA10" d="M1705.816,2781.1c0,26.138-21.19,47.328-47.328,47.328H69.577c-26.139,0-47.328-21.19-47.328-47.328 v-14.813c0-26.138,21.19-47.328,47.328-47.328h1588.91c26.139,0,47.328,21.19,47.328,47.328V2781.1z" />
            <path fill="#A48A7B" d="M1626.545,2718.958H99.633c0,0-24.536-452.978,0-632.281c0,0,21.418-96.436,94.37-101.92 s1160.755-41.523,1330.622-15.099c0,0,96.258,5.662,101.92,90.595C1632.207,2145.187,1635.982,2673.66,1626.545,2718.958z" />
            <path fill="#F1DFEE" d="M266.042,2298.066c0,0-57.443,67.97-117.336,64.172s-79.271-67.947-75.496-135.893 c3.775-67.947,9.437-235.926,84.933-247.25s964.359-41.807,1318.301-19.016c0,0,148.386,7.692,155.85,88.85 s23.56,258.497-0.531,273.635c-24.091,15.138-88.263,24.575-126.011-3.736c-37.748-28.311-77.384-71.721-100.032-54.735 c-22.649,16.987-88.708,9.437-137.781-5.662c-49.073-15.099-71.721-5.662-101.92,20.761s-77.384,45.298-130.231,9.437 c-52.847-35.861-84.933-77.384-147.218-32.086c-62.284,45.298-150.992,82.904-226.489,82.975s-124.569-128.272-183.078-75.425 c-58.51,52.847-81.158,71.721-113.244,39.636C333.671,2271.643,313.563,2256.572,266.042,2298.066z" />
            <path fill="#A48A7B" d="M1387.941,1955.807c0,0-394.566-16.339-1046.322,12.524c0,0-16.485-237.203-9.011-316.426 c7.474-79.222,702.535-79.222,849.021-73.243c146.486,5.979,185.35,31.39,194.318,67.264 C1384.915,1681.801,1392.462,1824.735,1387.941,1955.807z" />
            <path fill="#F1DFEE" d="M440.23,1761.023c0,0-47.832,52.316-85.201,35.874s-31.39-29.895-31.39-49.327 s-11.958-207.771,40.358-224.213c52.316-16.442,103.138-37.369,281.014-31.39s378.173,5.979,445.437,5.979 c67.264,0,267.561,4.484,279.519,46.337c11.958,41.853,32.885,243.645,0,212.255c-32.885-31.39-64.274-61.285-112.107-32.885 c-47.832,28.4-86.696,28.4-109.117,13.453c-22.421-14.948-37.369-46.337-56.801-38.864c-19.432,7.474-29.895-1.495-44.843-7.474 c-14.948-5.979-29.895-10.463-52.316,8.969s-52.316,46.337-86.696,34.379c-34.379-11.958-36.86-32.885-47.578-38.864 c-10.718-5.979-4.739-43.348-37.623-26.906c-32.885,16.442-65.769,31.39-82.212,31.39c-16.442,0-14.948,19.432-41.853,31.39 c-26.906,11.958-68.759-29.895-110.612-14.948c-41.853,14.948-82.212,46.337-101.643,46.337 C467.135,1762.518,463.348,1740.737,440.23,1761.023z" />
            <path fill="#FFFFFF" d="M1124.874,1510.501c0,0,225.802,3.551,238.231,50.604c12.429,47.053,15.98,157.138,15.98,157.138 s-18.643-146.484-31.073-158.913C1335.583,1546.9,1325.892,1536.299,1124.874,1510.501z" />
            <path fill="#FFFFFF" d="M1183.782,1741.639c0,0,21.235,5.963,79.633-23.397 C1263.415,1718.242,1206.167,1739.968,1183.782,1741.639z" />
            <path fill="#FFFFFF" d="M1095.191,1694.191c0,0-13.604,7.963-29.53,1.659C1065.66,1695.85,1079.928,1698.505,1095.191,1694.191z" />
            <path fill="#FFFFFF" d="M988.35,1700.495c0,0-44.462,37.494-66.692,32.517C921.658,1733.012,944.884,1732.017,988.35,1700.495z" />
            <path fill="#FFFFFF" d="M738.834,1696.235c0,0,16.59,1.274,65.365-22.947C804.2,1673.288,757.084,1693.633,738.834,1696.235z" />
            <path fill="#FFFFFF" d="M715.276,1715.427c0,0-18.581,19.908-40.148,11.945C675.128,1727.372,689.877,1731.115,715.276,1715.427z" />
            <path fill="#FFFFFF" d="M476.378,1756.238c0,0,8.959,9.622,42.139-9.291c33.18-18.913,62.047-30.194,62.047-30.194 s-31.858,9.597-57.07,24.553C498.283,1756.264,484.984,1756.752,476.378,1756.238z" />
            <path fill="#FFFFFF" d="M423.954,1768.515c0,0-41.807,42.802-74.656,20.24C349.298,1788.755,375.842,1804.018,423.954,1768.515z" />
            <path fill="#FFFFFF" d="M1324.379,1968.331c0,0,109.673,2.498,163.679,6.652s134.599,25.757,137.091,90.563 c0,0-12.463-38.219-44.866-56.498C1547.879,1990.77,1507.998,1976.635,1324.379,1968.331z" />
            <path fill="#FFFFFF" d="M1327.863,2267.686c0,0,38.946,6.019,56.649,0c17.703-6.019,22.66-11.684,35.76-9.914 c0,0-9.56-5.311-25.138,1.416C1379.555,2265.916,1361.91,2270.053,1327.863,2267.686z" />
            <path fill="#FFFFFF" d="M1199.34,2251.046c0,0-19.827,6.727-29.387,16.286c-9.559,9.56-44.965,38.238-90.638,35.052 c0,0,44.257-3.541,69.395-22.659C1173.848,2260.605,1186.24,2253.524,1199.34,2251.046z" />
            <path fill="#FFFFFF" d="M923.531,2234.405c0,0-14.162,2.478-33.635,16.641c-19.473,14.162-106.186,78.917-230.944,82.756 c0,0,127.957-19.879,184.898-56.964C900.791,2239.753,915.066,2231.626,923.531,2234.405z" />
            <path fill="#FFFFFF" d="M506.683,2246.151c0,0-18.554-0.64-29.43,10.876c-10.876,11.516-55.661,56.301-84.452,54.382 c0,0,33.691-8.274,52.865-27.555C464.84,2264.573,478.88,2244.365,506.683,2246.151z" />
            <path fill="#FFFFFF" d="M311.731,2268.238c0,0-31.581,5.639-49.063,25.377c-17.482,19.738-73.03,69.928-129.706,62.315 c0,0,68.8-7.895,102.355-41.167C268.871,2281.491,287.481,2268.52,311.731,2268.238z" />
        </g>
        <g>
            <g>
                <polygon fill="#951B81" points="801.215,1496.451 800.516,1449.706 904.098,1497.493 " />
                <polygon fill="#951B81" points="918.121,1360.581 801.915,1306.983 803.012,1291.104 863.098,1288.479 914.858,1312.353 " />
                <polygon fill="#951B81" points="917.676,1456.4 799.877,1401.405 800.159,1354.179 918.538,1408.791 " />
            </g>
            <g>
                <polygon fill="#E6007E" points="905.412,1498.088 800.516,1449.706 799.877,1401.405 917.676,1456.4 916.302,1497.582 " />
                <polygon fill="#E6007E" points="914.858,1312.353 863.098,1288.479 913.313,1287.657 " />
                <polygon fill="#E6007E" points="918.538,1408.791 800.159,1354.179 801.915,1306.983 918.121,1360.581 " />
            </g>
            <rect x="848.349" y="1275.472" transform="matrix(0.085 0.9964 -0.9964 0.085 2059.1125 311.033)" width="23.734" height="2.234" />
            <path fill="#FFED00" d="M859.208,1264.764c20.839,3.939,55.588-35.874,34.661-62.78c-20.927-26.906-35.874-34.379-28.4-47.832 C865.469,1154.153,772.23,1248.322,859.208,1264.764z" />
        </g>
    </g>
</svg>