<?xml version="1.0" encoding="UTF-8"?>
<svg version="1.1" viewBox="0 0 50 50" xmlns="http://www.w3.org/2000/svg">
    <g transform="translate(0 5)">
        <rect width="50" height="50" fill-opacity="0" />
        <path d="m25 6.6565c-10.103 0-18.324 8.2194-18.324 18.323 1.14e-5 10.103 8.2209 18.324 18.324 18.324s18.324-8.2209 18.324-18.324c-1.1e-5 -10.103-8.2209-18.323-18.324-18.323zm0 2.7827c8.5993 0 15.54 6.9409 15.54 15.54-1e-5 8.5993-6.9409 15.542-15.54 15.542-8.5993 7.7e-5 -15.54-6.9424-15.54-15.542 9.7e-6 -8.5993 6.9409-15.54 15.54-15.54z" color="#000000" color-rendering="auto" fill="#45d6a9" image-rendering="auto" shape-rendering="auto" solid-color="#000000" style="block-progression:tb;isolation:auto;mix-blend-mode:normal;text-decoration-color:#000000;text-decoration-line:none;text-decoration-style:solid;text-indent:0;text-transform:none;white-space:normal" />
        <g transform="translate(8 17) scale(0.55 0.55)">
            <path d="m10.641 5.4531c-0.59364 0-1.1877 0.22872-1.6426 0.68359l-2.8613 2.8613c-0.90975 0.90975-0.90975 2.3735 0 3.2832l12.719 12.719 6.1445 6.1445 6.1445-6.1445 22.204-22.204c0.90975-0.90975 0.90975-2.3735 0-3.2832l-2.8613-2.8613c-0.90975-0.90975-2.3735-0.90975-3.2832 0l-22.204 22.204-12.719-12.719c-0.45487-0.45487-1.047-0.68359-1.6406-0.68359z" fill="#45d6a9" />
        </g>
    </g>
</svg>
